# xmcd
#
# Track frame offsets: 
#        150
#        24065
#        65331
#        86809
#        109322
#        152903
#        179866
#        231387
#        255160
#        289519
#        307826
#
# Disc length: 4490 seconds
#
# Revision: 3
# Processed by: cddbd v1.5.2PL0 Copyright (c) Steve Scherf et al.
# Submitted via: ExactAudioCopy v1.3
#
DISCID=8c11880b
DTITLE=High Tide - Sea Shanties
DYEAR=1969
DGENRE=Progressive Rock
TTITLE0=Futilist's Lament
TTITLE1=Death Warmed Up
TTITLE2=Pushed, But Not Forgotten
TTITLE3=Walking Down Their Outlook
TTITLE4=Missing Out
TTITLE5=Nowhere
TTITLE6=The Great Universal Protection Racket (unreleased)
TTITLE7=Dilemma (unreleased)
TTITLE8=Death Warmed Up (unreleased demo)
TTITLE9=Pushed, But Not Forgotten (unreleased demo)
TTITLE10=Time Gauges (unreleased)
EXTD=
EXTT0=
EXTT1=
EXTT2=
EXTT3=
EXTT4=
EXTT5=
EXTT6=
EXTT7=
EXTT8=
EXTT9=
EXTT10=
PLAYORDER=
